<svg width="16" height="17" viewBox="0 0 16 17" fill="none" xmlns="http://www.w3.org/2000/svg">
<g clip-path="url(#clip0)">
<circle cx="8" cy="8.5" r="8" fill="#CCCCCC"/>
<path fill-rule="evenodd" clip-rule="evenodd" d="M4.96967 5.46967C5.26256 5.17678 5.73744 5.17678 6.03033 5.46967L8 7.43934L9.96967 5.46968C10.2626 5.17678 10.7374 5.17678 11.0303 5.46968C11.3232 5.76257 11.3232 6.23744 11.0303 6.53034L9.06066 8.5L11.0303 10.4697C11.3232 10.7626 11.3232 11.2374 11.0303 11.5303C10.7374 11.8232 10.2626 11.8232 9.96967 11.5303L8 9.56066L6.03033 11.5303C5.73744 11.8232 5.26256 11.8232 4.96967 11.5303C4.67678 11.2374 4.67678 10.7626 4.96967 10.4697L6.93934 8.5L4.96967 6.53033C4.67678 6.23744 4.67678 5.76256 4.96967 5.46967Z" fill="white"/>
</g>
<defs>
<clipPath id="clip0">
<rect width="16" height="16" fill="white" transform="translate(0 0.5)"/>
</clipPath>
</defs>
</svg>
